<?xml version="1.0" encoding="utf-8"?>
<!-- Generator: Adobe Illustrator 26.1.0, SVG Export Plug-In . SVG Version: 6.00 Build 0)  -->
<svg version="1.1" xmlns="http://www.w3.org/2000/svg" xmlns:xlink="http://www.w3.org/1999/xlink" x="0px" y="0px"
	 viewBox="0 0 256 256" style="enable-background:new 0 0 256 256;" xml:space="preserve">
<style type="text/css">
	.st0{fill:#0E002E;}
	.st1{fill:#FFFFFF;stroke:#FF69DE;stroke-width:2;stroke-miterlimit:10;}
	.st2{display:none;}
	.st3{display:inline;}
	.st4{fill:#FF27CF;}
	.st5{fill:#FFD69C;}
</style>
<g id="Livello_3">
	<g>
		<g>
			<path class="st0" d="M35.43,80.13c0.07,0.51-0.03-0.44-0.04-0.54c-0.02-0.28-0.02-0.56-0.02-0.85c0-0.28,0.01-0.57,0.03-0.85
				c0.01-0.16,0.03-0.32,0.05-0.48c-0.04,0.26-0.03,0.25,0.01-0.05c0.11-0.55,0.23-1.1,0.4-1.63c0.07-0.23,0.15-0.45,0.24-0.67
				c-0.17,0.45,0.19-0.4,0.23-0.48c0.13-0.24,0.26-0.48,0.41-0.71c0.05-0.08,0.5-0.73,0.21-0.35c0.33-0.43,0.72-0.8,1.11-1.16
				c0.22-0.18,0.23-0.19,0.03-0.03c0.12-0.09,0.25-0.17,0.37-0.26c0.19-0.12,0.38-0.24,0.58-0.34c0.13-0.07,0.27-0.14,0.4-0.2
				c-0.26,0.1-0.25,0.1,0.02-0.01c0.25-0.08,0.49-0.17,0.74-0.23c0.25-0.06,0.5-0.12,0.75-0.16c-0.6,0.09,0.31,0.01,0.42,0
				c0.22,0,0.44,0.01,0.65,0.03c-0.6-0.04,0.28,0.07,0.41,0.1c0.21,0.06,0.42,0.13,0.63,0.2c-0.53-0.19,0.25,0.15,0.35,0.21
				c0.18,0.11,0.36,0.22,0.53,0.35c-0.46-0.33,0.22,0.22,0.3,0.3c0.18,0.18,0.34,0.37,0.51,0.56c0.11,0.14,0.09,0.11-0.06-0.07
				c0.08,0.12,0.17,0.24,0.24,0.36c0.16,0.25,0.29,0.51,0.43,0.77c0.31,0.6-0.12-0.43,0.09,0.22c0.09,0.28,0.18,0.56,0.25,0.85
				c0.04,0.18,0.12,0.66,0.06,0.21c0.04,0.29,0.05,0.59,0.05,0.89c0,0.11-0.1,1.03-0.01,0.45c1.39-0.37,2.79-0.74,4.18-1.1
				c-0.17-0.16-0.34-0.33-0.48-0.51c0.22,0.28-0.01-0.05-0.09-0.17c-0.24-0.38-0.45-0.77-0.65-1.16c-0.48-0.9-0.97-1.77-1.65-2.54
				c-1.5-1.69-4.06-2.67-6.16-1.49c-1.78,1-2.66,3.13-2.43,5.12c0.26,2.24,1.56,3.9,3.09,5.46c0.61,0.62,1.59,0.9,2.43,0.64
				c2.51-0.76,3.13-3.53,2.38-5.8c-0.71-2.16-2.31-4.32-4.49-5.13c-2.45-0.91-5.25,0.3-6.13,2.79c-0.77,2.2,0.3,4.59,1.87,6.15
				c1.73,1.72,4.54,2.74,6.43,0.66c1.56-1.71,1.44-4.56-0.07-6.25c-1.53-1.7-4.04-2.05-6.2-1.85c-1.35,0.12-2.67,0.52-3.65,1.51
				c-0.89,0.89-1.41,2.15-1.38,3.41c0.06,3.13,3.58,4.47,6.1,5.23c2.65,0.8,5.36,0.88,8.09,0.51c0.88-0.12,1.47-1,1.75-1.75
				c0.6-1.63,0.07-3.36-1.03-4.63c-0.86-0.99-2.67-0.95-3.54,0c-0.97,1.06-0.92,2.48,0,3.54c-0.11-0.11-0.18-0.23-0.21-0.39
				c0.06,0.25,0.07,0.28,0.04,0.09c-0.02-0.19-0.03-0.16-0.02,0.1c0.04-0.31,0.02-0.32-0.06-0.04c0.58-0.58,1.16-1.16,1.75-1.75
				c0.39-0.05-0.41,0.03-0.51,0.03c-0.31,0.02-0.61,0.03-0.92,0.03c-0.35,0-0.7-0.01-1.05-0.03c-0.13-0.01-0.26-0.02-0.39-0.03
				c-0.07-0.01-0.63-0.06-0.25-0.01c-1.26-0.16-2.52-0.51-3.69-0.99c-0.4-0.17,0.26,0.12-0.14-0.06c-0.12-0.06-0.24-0.11-0.36-0.17
				c-0.29-0.14-0.59-0.3-0.87-0.47c0.2,0.12,0.04,0.14,0.06,0.04c-0.03-0.03-0.05-0.05-0.08-0.08c0.22,0.19,0.32,0.42,0.31,0.68
				c0.07,0.09,0.06,0.15,0-0.06c-0.01,0.09-0.02,0.18-0.03,0.27c0.07-0.23,0.08-0.26,0.02-0.08c-0.16,0.27,0.04-0.03,0.07-0.06
				c-0.14,0.18-0.18,0.2-0.34,0.33c0.06-0.05,0.42-0.22,0.05-0.07c0.11-0.04,0.24-0.05,0.34-0.1c0.33-0.15-0.32,0,0.05-0.02
				c0.12-0.01,0.24-0.02,0.36-0.02c0.31-0.01,0.62-0.01,0.93,0c0.15,0.01,0.3,0.02,0.45,0.03c-0.1-0.01-0.48-0.1,0,0
				c0.11,0.02,0.22,0.05,0.33,0.08c0.07,0.02,0.5,0.19,0.22,0.06c-0.26-0.12,0.07,0.05,0.09,0.07c-0.25-0.19-0.01-0.16,0.02,0.02
				c0,0.01-0.22-0.38-0.1-0.14c0.13,0.26-0.12-0.52-0.03-0.08c0.09,0.39-0.02-0.17,0-0.17c0,0,0.01,0.23,0.01,0.25
				c-0.05,0.34,0.12-0.51,0.03-0.18c0,0.02-0.06,0.23-0.06,0.23c-0.11-0.07,0.28-0.49,0.06-0.18c0.11-0.16,0.22-0.27,0.37-0.38
				c0.21-0.16,0.43-0.23,0.69-0.25c0,0,0.66,0.03,0.59,0.1c-0.04,0.04-0.74-0.51-0.48-0.29c0.23,0.19-0.04-0.05-0.07-0.08
				c-0.1-0.1-0.2-0.21-0.31-0.3c-0.02-0.02-0.27-0.29-0.09-0.08c0.2,0.22-0.09-0.13-0.13-0.19c-0.06-0.09-0.11-0.19-0.17-0.28
				c-0.31-0.5,0.02,0.22-0.05-0.08c-0.03-0.13-0.07-0.27-0.11-0.39c-0.09-0.27,0.02,0.14,0.03,0.17c-0.02-0.48,0.01,0.01-0.04,0.09
				c0.02-0.02,0.13-0.38,0-0.07c-0.13,0.31,0.25-0.13-0.01,0.03c-0.07,0.05-0.19,0.18-0.26,0.24c0.31-0.28,0.08,0.01-0.06,0.01
				c0.48,0.01-0.31-0.02,0.02-0.01c0.29,0.01-0.14-0.04-0.17-0.05c0.03,0.01,0.58,0.2,0.28,0.06c-0.29-0.13,0.05,0.04,0.08,0.07
				c0.57,0.4-0.16-0.18,0.12,0.1c0.11,0.11,0.22,0.22,0.32,0.34c0.27,0.3-0.28-0.45,0.12,0.15c0.18,0.27,0.35,0.54,0.5,0.82
				c0.07,0.12,0.12,0.25,0.19,0.37c-0.09-0.15-0.13-0.4-0.05-0.09c0.07,0.26,0.14,0.8,0.11,0.25c0.01,0.11,0.01,0.25,0.02,0.36
				c0.06,0.44,0.1-0.32,0.03-0.08c-0.08,0.27,0.13-0.25,0.12-0.24c0.17-0.28,0.51-0.54,0.83-0.64c0.81,0.21,1.62,0.43,2.43,0.64
				c-0.22-0.23-0.45-0.46-0.66-0.69c-0.06-0.07-0.63-0.77-0.38-0.42c-0.19-0.26-0.36-0.53-0.51-0.82c0.2,0.38-0.1-0.36-0.13-0.46
				c0.16,0.58,0.02-0.15,0.02-0.35c0,0.6,0.04-0.11,0.12-0.31c-0.13,0.3-0.13,0.33,0.01,0.09c-0.21,0.26-0.22,0.29-0.03,0.09
				c-0.11,0.13-0.25,0.22-0.42,0.26c-0.3,0.02-0.35,0.02-0.17,0.02c0.19,0,0.13-0.01-0.16-0.03c0.27,0.09,0.27,0.08,0-0.03
				c0.13,0.07,0.26,0.14,0.38,0.23c-0.2-0.16-0.19-0.15,0.03,0.04c0.11,0.11,0.22,0.22,0.32,0.34c-0.14-0.21-0.13-0.19,0.03,0.05
				c0.17,0.28,0.34,0.55,0.49,0.84c0.68,1.25,1.31,2.51,2.35,3.51c1.23,1.18,3.87,0.84,4.18-1.1c0.39-2.51,0-5.05-1.37-7.23
				c-1.28-2.02-3.24-3.65-5.59-4.23c-4.98-1.24-10.03,1.81-12.01,6.38c-1.21,2.78-1.49,5.67-1.05,8.66c0.19,1.3,1.9,2.13,3.08,1.75
				C35.11,82.74,35.64,81.52,35.43,80.13L35.43,80.13z"/>
		</g>
	</g>
	<g>
		<g>
			<path class="st0" d="M42.69,74.67c-0.62-8.13,0.5-16.4,3.66-23.95C49.14,44.05,54,37.62,60.71,35c3.79-1.48,7.83-1.94,11.87-1.11
				c4.55,0.94,8.73,3.23,12.23,6.26c7.63,6.6,12,15.99,14.8,25.51c5.74,19.5,5.53,40.23,7.42,60.32c1.28,13.65,2.58,27.32,5.14,40.8
				c2.65,14,6.47,28.64,14.47,40.62c3.53,5.29,7.98,10.08,13.55,13.24c6.26,3.56,13.64,4.83,20.76,3.97
				c18.56-2.25,31.01-18.21,35.76-35.3c2.76-9.94,5.14-20.15,6.72-30.35c1.23-7.91,1.74-15.86,1.24-23.85
				c-0.73-11.72-0.32-23.37-0.07-35.1c0.2-9.34,0.99-18.71,3.06-27.84c1.72-7.58,4.21-14.89,8.73-21.26
				c3.66-5.17,8.88-9.14,15.1-10.72c3.39-0.87,6.7-1.02,10.39-0.73c1.35,0.1,2.5-1.22,2.5-2.5c0-1.44-1.15-2.4-2.5-2.5
				c-7.38-0.57-14.97,0.9-21.12,5.17c-6.04,4.19-10.35,10.33-13.29,17c-7.94,17.99-7.76,38.14-8.22,57.41
				c-0.14,5.96-0.15,11.93,0.21,17.89c0.25,4.14,0.5,8.26,0.39,12.41c-0.23,8.55-1.66,16.78-3.48,25.14
				c-1.21,5.57-2.58,11.11-3.98,16.64c-1.11,4.39-2.61,8.66-4.7,12.69c-3.89,7.48-9.61,14.08-17.23,17.89
				c-3.55,1.77-7.54,2.85-11.5,3.1c-2.17,0.14-4.36,0.08-6.52-0.19c0.46,0.06-0.52-0.08-0.66-0.1c-0.35-0.06-0.71-0.12-1.06-0.2
				c-0.81-0.17-1.61-0.36-2.4-0.6c-0.7-0.21-1.4-0.44-2.08-0.7c-0.18-0.07-0.89-0.36-0.76-0.3c0.33,0.14-0.36-0.16-0.33-0.15
				c-0.21-0.1-0.41-0.19-0.62-0.29c-1.36-0.66-2.68-1.42-3.93-2.27c-0.28-0.19-0.56-0.39-0.84-0.59c-0.15-0.11-0.31-0.23-0.46-0.34
				c0.08,0.06,0.34,0.27-0.04-0.03c-0.6-0.48-1.19-0.97-1.76-1.49c-1.16-1.05-2.25-2.17-3.27-3.35c-1.94-2.23-3.63-4.69-5.27-7.54
				c-1.69-2.93-3.3-6.31-4.44-9.14c-2.75-6.82-4.74-13.95-6.32-21.12c-3.06-13.88-4.49-27.38-5.81-41.53
				c-0.81-8.71-1.46-17.43-2.09-26.16c-0.78-10.79-1.72-21.63-4.04-32.21c-2.19-9.99-5.67-20.26-11.95-28.47
				c-6.13-8-15.28-14.54-25.72-14.54c-8.31,0-15.95,4.08-21.07,10.52c-5.3,6.66-8.23,14.95-9.38,23.32
				c-0.56,4.09-0.74,8.21-0.43,12.33c0.1,1.35,1.08,2.5,2.5,2.5C41.46,77.17,42.79,76.02,42.69,74.67L42.69,74.67z"/>
		</g>
	</g>
</g>
<g id="Livello_1">
	<path class="st0" d="M243.38,182.81H17.12c-4.35,0-7.87-3.52-7.87-7.87V84.3c0-4.35,3.52-7.87,7.87-7.87h226.26
		c4.35,0,7.87,3.52,7.87,7.87v90.63C251.25,179.28,247.73,182.81,243.38,182.81z"/>
</g>
<g id="Livello_2">
	<g>
		<path class="st1" d="M48.45,125.12h-16.4c-2.93,0-5.3-2.37-5.3-5.3v-16.4c0-2.93,2.37-5.3,5.3-5.3h16.4c2.93,0,5.3,2.37,5.3,5.3
			v16.4C53.75,122.75,51.38,125.12,48.45,125.12z"/>
		<path class="st1" d="M84.45,125.12h-16.4c-2.93,0-5.3-2.37-5.3-5.3v-16.4c0-2.93,2.37-5.3,5.3-5.3h16.4c2.93,0,5.3,2.37,5.3,5.3
			v16.4C89.75,122.75,87.38,125.12,84.45,125.12z"/>
		<path class="st1" d="M120.45,125.12h-16.4c-2.93,0-5.3-2.37-5.3-5.3v-16.4c0-2.93,2.37-5.3,5.3-5.3h16.4c2.93,0,5.3,2.37,5.3,5.3
			v16.4C125.75,122.75,123.38,125.12,120.45,125.12z"/>
		<path class="st1" d="M156.45,125.12h-16.4c-2.93,0-5.3-2.37-5.3-5.3v-16.4c0-2.93,2.37-5.3,5.3-5.3h16.4c2.93,0,5.3,2.37,5.3,5.3
			v16.4C161.75,122.75,159.38,125.12,156.45,125.12z"/>
		<path class="st1" d="M192.45,125.12h-16.4c-2.93,0-5.3-2.37-5.3-5.3v-16.4c0-2.93,2.37-5.3,5.3-5.3h16.4c2.93,0,5.3,2.37,5.3,5.3
			v16.4C197.75,122.75,195.38,125.12,192.45,125.12z"/>
		<path class="st1" d="M228.45,125.12h-16.4c-2.93,0-5.3-2.37-5.3-5.3v-16.4c0-2.93,2.37-5.3,5.3-5.3h16.4c2.93,0,5.3,2.37,5.3,5.3
			v16.4C233.75,122.75,231.38,125.12,228.45,125.12z"/>
		<path class="st1" d="M48.45,161.12h-16.4c-2.93,0-5.3-2.37-5.3-5.3v-16.4c0-2.93,2.37-5.3,5.3-5.3h16.4c2.93,0,5.3,2.37,5.3,5.3
			v16.4C53.75,158.75,51.38,161.12,48.45,161.12z"/>
		<path class="st1" d="M192.45,161.12H68.05c-2.93,0-5.3-2.37-5.3-5.3v-16.4c0-2.93,2.37-5.3,5.3-5.3h124.4c2.93,0,5.3,2.37,5.3,5.3
			v16.4C197.75,158.75,195.38,161.12,192.45,161.12z"/>
		<path class="st1" d="M228.45,161.12h-16.4c-2.93,0-5.3-2.37-5.3-5.3v-16.4c0-2.93,2.37-5.3,5.3-5.3h16.4c2.93,0,5.3,2.37,5.3,5.3
			v16.4C233.75,158.75,231.38,161.12,228.45,161.12z"/>
	</g>
</g>
<g id="Livello_4" class="st2">
	<g class="st3">
		<path class="st4" d="M48.45,125.12h-16.4c-2.93,0-5.3-2.37-5.3-5.3v-16.4c0-2.93,2.37-5.3,5.3-5.3h16.4c2.93,0,5.3,2.37,5.3,5.3
			v16.4C53.75,122.75,51.38,125.12,48.45,125.12z"/>
		<path class="st5" d="M32.05,120.12c-0.17,0-0.3-0.13-0.3-0.3v-16.4c0-0.17,0.13-0.3,0.3-0.3h16.4c0.17,0,0.3,0.13,0.3,0.3v16.4
			c0,0.17-0.13,0.3-0.3,0.3H32.05z"/>
		<path class="st4" d="M84.45,125.12h-16.4c-2.93,0-5.3-2.37-5.3-5.3v-16.4c0-2.93,2.37-5.3,5.3-5.3h16.4c2.93,0,5.3,2.37,5.3,5.3
			v16.4C89.75,122.75,87.38,125.12,84.45,125.12z"/>
		<path class="st5" d="M68.05,120.12c-0.17,0-0.3-0.13-0.3-0.3v-16.4c0-0.17,0.13-0.3,0.3-0.3h16.4c0.17,0,0.3,0.13,0.3,0.3v16.4
			c0,0.17-0.13,0.3-0.3,0.3H68.05z"/>
		<path class="st4" d="M120.45,125.12h-16.4c-2.93,0-5.3-2.37-5.3-5.3v-16.4c0-2.93,2.37-5.3,5.3-5.3h16.4c2.93,0,5.3,2.37,5.3,5.3
			v16.4C125.75,122.75,123.38,125.12,120.45,125.12z"/>
		<path class="st5" d="M104.05,120.12c-0.17,0-0.3-0.13-0.3-0.3v-16.4c0-0.17,0.13-0.3,0.3-0.3h16.4c0.17,0,0.3,0.13,0.3,0.3v16.4
			c0,0.17-0.13,0.3-0.3,0.3H104.05z"/>
		<path class="st4" d="M156.45,125.12h-16.4c-2.93,0-5.3-2.37-5.3-5.3v-16.4c0-2.93,2.37-5.3,5.3-5.3h16.4c2.93,0,5.3,2.37,5.3,5.3
			v16.4C161.75,122.75,159.38,125.12,156.45,125.12z"/>
		<path class="st5" d="M140.05,120.12c-0.17,0-0.3-0.13-0.3-0.3v-16.4c0-0.17,0.13-0.3,0.3-0.3h16.4c0.17,0,0.3,0.13,0.3,0.3v16.4
			c0,0.17-0.13,0.3-0.3,0.3H140.05z"/>
		<path class="st4" d="M192.45,125.12h-16.4c-2.93,0-5.3-2.37-5.3-5.3v-16.4c0-2.93,2.37-5.3,5.3-5.3h16.4c2.93,0,5.3,2.37,5.3,5.3
			v16.4C197.75,122.75,195.38,125.12,192.45,125.12z"/>
		<path class="st5" d="M176.05,120.12c-0.17,0-0.3-0.13-0.3-0.3v-16.4c0-0.17,0.13-0.3,0.3-0.3h16.4c0.17,0,0.3,0.13,0.3,0.3v16.4
			c0,0.17-0.13,0.3-0.3,0.3H176.05z"/>
		<path class="st4" d="M228.45,125.12h-16.4c-2.93,0-5.3-2.37-5.3-5.3v-16.4c0-2.93,2.37-5.3,5.3-5.3h16.4c2.93,0,5.3,2.37,5.3,5.3
			v16.4C233.75,122.75,231.38,125.12,228.45,125.12z"/>
		<path class="st5" d="M212.05,120.12c-0.17,0-0.3-0.13-0.3-0.3v-16.4c0-0.17,0.13-0.3,0.3-0.3h16.4c0.17,0,0.3,0.13,0.3,0.3v16.4
			c0,0.17-0.13,0.3-0.3,0.3H212.05z"/>
		<path class="st4" d="M48.45,161.12h-16.4c-2.93,0-5.3-2.37-5.3-5.3v-16.4c0-2.93,2.37-5.3,5.3-5.3h16.4c2.93,0,5.3,2.37,5.3,5.3
			v16.4C53.75,158.75,51.38,161.12,48.45,161.12z"/>
		<path class="st5" d="M32.05,156.12c-0.17,0-0.3-0.13-0.3-0.3v-16.4c0-0.17,0.13-0.3,0.3-0.3h16.4c0.17,0,0.3,0.13,0.3,0.3v16.4
			c0,0.17-0.13,0.3-0.3,0.3H32.05z"/>
		<path class="st4" d="M192.45,161.12H68.05c-2.93,0-5.3-2.37-5.3-5.3v-16.4c0-2.93,2.37-5.3,5.3-5.3h124.4c2.93,0,5.3,2.37,5.3,5.3
			v16.4C197.75,158.75,195.38,161.12,192.45,161.12z"/>
		<path class="st5" d="M68.05,156.12c-0.17,0-0.3-0.13-0.3-0.3v-16.4c0-0.17,0.13-0.3,0.3-0.3h124.4c0.17,0,0.3,0.13,0.3,0.3v16.4
			c0,0.17-0.13,0.3-0.3,0.3H68.05z"/>
		<path class="st4" d="M228.45,161.12h-16.4c-2.93,0-5.3-2.37-5.3-5.3v-16.4c0-2.93,2.37-5.3,5.3-5.3h16.4c2.93,0,5.3,2.37,5.3,5.3
			v16.4C233.75,158.75,231.38,161.12,228.45,161.12z"/>
		<path class="st5" d="M212.05,156.12c-0.17,0-0.3-0.13-0.3-0.3v-16.4c0-0.17,0.13-0.3,0.3-0.3h16.4c0.17,0,0.3,0.13,0.3,0.3v16.4
			c0,0.17-0.13,0.3-0.3,0.3H212.05z"/>
	</g>
</g>
</svg>
